<svg version="1" xmlns="http://www.w3.org/2000/svg" width="413.333" height="413.333" viewBox="0 0 310.000000 310.000000"><path d="M158.9 17.2c-16.4 32.6-46 58.5-80.1 69.9C68.1 90.7 51.9 94 45.1 94c-2.7 0-6.3.3-8 .6l-3.1.6v119.5l3.7.7c2.1.3 5.7.6 8 .6 6.3 0 22.8 3.4 33.1 6.9 34.1 11.4 63.7 37.3 80.1 69.8 1.7 3.5 3.4 6.3 3.7 6.3.7 0 108.7-47 109.3-47.6.1-.1-1.3-4.5-3.3-9.6-11-28.7-15.9-55.1-15.9-86.8 0-31.7 4.9-58.1 15.9-86.8 2-5.1 3.4-9.5 3.3-9.6C271.2 58 163.3 11 162.6 11c-.3 0-2 2.8-3.7 6.2zm49.2 39.6c-2.2 4.1-9 30.2-11.5 44.2-3.6 20.1-4.6 32.2-4.6 54 0 21.8 1 33.9 4.6 54 2.5 14 9.3 40.1 11.5 44.2.6 1.1.9 2.2.6 2.4-.2.2-2.1-2.4-4.2-5.8-7.2-11.9-18-25.3-29-36.3-22.4-22.4-48.3-38.5-78-48.4-12.5-4.2-34.6-9.1-40.9-9.1-2 0-3.6-.5-3.6-1 0-.6 1.6-1 3.6-1 6.3 0 28.4-4.9 40.9-9.1 29.7-9.9 55.6-26 78-48.4 11.3-11.2 22.4-25.2 29.1-36.4 2-3.4 3.9-6 4.1-5.7.3.2 0 1.3-.6 2.4z"/></svg>