<svg version="1.1" viewBox="0.0 0.0 2317.6482939632547 847.0577427821522" fill="none" stroke="none" stroke-linecap="square" stroke-miterlimit="10" xmlns:xlink="http://www.w3.org/1999/xlink" xmlns="http://www.w3.org/2000/svg"><clipPath id="p.0"><path d="m0 0l2317.6482 0l0 847.05774l-2317.6482 0l0 -847.05774z" clip-rule="nonzero"/></clipPath><g clip-path="url(#p.0)"><path fill="#000000" fill-opacity="0.0" d="m0 0l2317.6482 0l0 847.05774l-2317.6482 0z" fill-rule="evenodd"/><path fill="#000000" fill-opacity="0.0" d="m-35.99344 141.10236l733.1339 0l0 617.3228l-733.1339 0z" fill-rule="evenodd"/><path fill="#000000" d="m328.5968 550.68677q3.953125 0 7.15625 3.203125l18.75 20.484375q-21.703125 25.15625 -52.671875 39.21875q-30.953125 14.0625 -74.609375 14.0625q-38.234375 0 -69.3125 -13.203125q-31.078125 -13.203125 -53.03125 -37.0q-21.953125 -23.796875 -34.046875 -57.09375q-12.078125 -33.31253 -12.078125 -73.265656q0 -39.96875 12.9375 -73.265625q12.953125 -33.296875 36.390625 -57.21875q23.4375 -23.921875 56.109375 -37.125q32.6875 -13.203125 72.15625 -13.203125q38.96875 0 67.203125 12.09375q28.25 12.078125 50.203125 32.8125l-15.53125 21.953125q-1.734375 2.453125 -3.953125 4.0625q-2.21875 1.609375 -6.40625 1.609375q-3.203125 0 -6.78125 -2.34375q-3.578125 -2.34375 -8.515625 -5.796875q-4.9375 -3.453125 -11.59375 -7.40625q-6.65625 -3.953125 -15.78125 -7.40625q-9.125 -3.453125 -21.21875 -5.796875q-12.078125 -2.34375 -27.875 -2.34375q-28.359375 0 -51.921875 9.75q-23.546875 9.75 -40.578125 27.75q-17.015625 18.0 -26.515625 43.90625q-9.484375 25.90625 -9.484375 57.96875q0 33.046875 9.484375 58.953125q9.5 25.890656 25.90625 43.78128q16.40625 17.875 38.84375 27.25q22.453125 9.375 48.34375 9.375q15.796875 0 28.375 -1.84375q12.578125 -1.859375 23.296875 -5.796875q10.734375 -3.953125 19.984375 -9.984375q9.25 -6.046875 18.625 -14.4375q4.203125 -3.703125 8.140625 -3.703125zm265.41418 73.015625l-19.484375 0q-6.421875 0 -10.375 -1.96875q-3.9375 -1.984375 -5.171875 -8.390625l-4.921875 -23.1875q-9.875 8.875 -19.25 15.90625q-9.375 7.03125 -19.734375 11.84375q-10.3594055 4.8125 -22.078156 7.28125q-11.703125 2.46875 -26.015656 2.46875q-14.546875 0 -27.25 -4.0625q-12.703125 -4.078125 -22.078125 -12.21875q-9.375 -8.140625 -14.9375 -20.59375q-5.546875 -12.46875 -5.546875 -29.484375q0 -14.796875 8.140625 -28.484375q8.140625 -13.6875 26.265625 -24.296906q18.140625 -10.609375 47.484406 -17.390625q29.359375 -6.78125 71.78128 -7.78125l0 -19.484375q0 -29.09375 -12.453125 -44.015625q-12.453125 -14.9375 -36.87503 -14.9375q-16.03125 0 -27.015656 4.078125q-10.96875 4.0625 -18.984375 9.125q-8.015625 5.0625 -13.8125 9.140625q-5.796875 4.0625 -11.46875 4.0625q-4.4375 0 -7.78125 -2.34375q-3.328125 -2.34375 -5.296875 -5.796875l-7.890625 -14.0625q20.71875 -19.984375 44.640625 -29.84375q23.93753 -9.875 53.03128 -9.875q20.96878 0 37.25003 6.90625q16.28125 6.90625 27.375 19.25q11.109375 12.328125 16.78125 29.84375q5.671875 17.5 5.671875 38.46875l0 159.84378zm-113.953156 -26.890625q11.59375 0 21.203125 -2.34375q9.625 -2.34375 18.12503 -6.65625q8.515625 -4.3125 16.28125 -10.484375q7.78125 -6.171875 15.171875 -14.0625l0 -52.046906q-30.328125 1.0000305 -51.546906 4.8281555q-21.21875 3.8125 -34.546906 9.984375q-13.3125 6.15625 -19.359375 14.546875q-6.03125 8.390625 -6.03125 18.75q0 9.859375 3.203125 17.015625q3.203125 7.15625 8.625 11.71875q5.4375 4.5625 12.828125 6.65625q7.40625 2.09375 16.046906 2.09375z" fill-rule="nonzero"/><path fill="#000000" fill-opacity="0.0" d="m755.68634 445.03937l0 0c0 -22.082703 18.141296 -39.984253 40.519714 -39.984253l0 0c10.74646 0 21.052795 4.212616 28.651733 11.711121c7.598938 7.4985046 11.86792 17.66864 11.86792 28.273132l0 0c0 22.082703 -18.141296 39.984253 -40.519653 39.984253l0 0c-22.378418 0 -40.519714 -17.90155 -40.519714 -39.984253z" fill-rule="evenodd"/><path fill="#000000" fill-opacity="0.0" d="m301.83334 101.11811l0 0c0 -22.082695 18.141266 -39.984253 40.519684 -39.984253l0 0c10.7464905 0 21.052826 4.212616 28.651733 11.711121c7.5989075 7.498497 11.86795 17.668648 11.86795 28.273132l0 0c0 22.082695 -18.141296 39.984245 -40.519684 39.984245l0 0c-22.378418 0 -40.519684 -17.90155 -40.519684 -39.984245z" fill-rule="evenodd"/><path fill="#000000" fill-opacity="0.0" d="m301.83334 781.1181l0 0c0 -22.082703 18.141266 -39.984253 40.519684 -39.984253l0 0c10.7464905 0 21.052826 4.2126465 28.651733 11.711121c7.5989075 7.498535 11.86795 17.66864 11.86795 28.273132l0 0c0 22.082703 -18.141296 39.984253 -40.519684 39.984253l0 0c-22.378418 0 -40.519684 -17.90155 -40.519684 -39.984253z" fill-rule="evenodd"/><path fill="#000000" d="m220.79396 129.90027l0 0c0 -22.082695 18.141281 -39.98426 40.5197 -39.98426l0 0c10.7464905 0 21.052826 4.212616 28.651733 11.711121c7.5989075 7.498497 11.86795 17.668648 11.86795 28.27314l0 0c0 22.082687 -18.141296 39.984253 -40.519684 39.984253l0 0c-22.378418 0 -40.5197 -17.901566 -40.5197 -39.984253z" fill-rule="evenodd"/><path stroke="#000000" stroke-width="1.0" stroke-linejoin="round" stroke-linecap="butt" d="m220.79396 129.90027l0 0c0 -22.082695 18.141281 -39.98426 40.5197 -39.98426l0 0c10.7464905 0 21.052826 4.212616 28.651733 11.711121c7.5989075 7.498497 11.86795 17.668648 11.86795 28.27314l0 0c0 22.082687 -18.141296 39.984253 -40.519684 39.984253l0 0c-22.378418 0 -40.5197 -17.901566 -40.5197 -39.984253z" fill-rule="evenodd"/><path fill="#000000" d="m382.8727 129.90027l0 0c0 -22.082695 18.141266 -39.98426 40.519684 -39.98426l0 0c10.7464905 0 21.052826 4.212616 28.651733 11.711121c7.5989075 7.498497 11.86795 17.668648 11.86795 28.27314l0 0c0 22.082687 -18.141296 39.984253 -40.519684 39.984253l0 0c-22.378418 0 -40.519684 -17.901566 -40.519684 -39.984253z" fill-rule="evenodd"/><path stroke="#000000" stroke-width="1.0" stroke-linejoin="round" stroke-linecap="butt" d="m382.8727 129.90027l0 0c0 -22.082695 18.141266 -39.98426 40.519684 -39.98426l0 0c10.7464905 0 21.052826 4.212616 28.651733 11.711121c7.5989075 7.498497 11.86795 17.668648 11.86795 28.27314l0 0c0 22.082687 -18.141296 39.984253 -40.519684 39.984253l0 0c-22.378418 0 -40.519684 -17.901566 -40.519684 -39.984253z" fill-rule="evenodd"/><path fill="#000000" fill-opacity="0.0" d="m766.7769 449.7638l310.80316 0" fill-rule="evenodd"/><path stroke="#000000" stroke-width="12.0" stroke-linejoin="round" stroke-linecap="butt" d="m766.7769 449.7638l238.80316 0" fill-rule="evenodd"/><path fill="#000000" stroke="#000000" stroke-width="12.0" stroke-linecap="butt" d="m1005.5801 469.58456l54.457153 -19.82077l-54.457153 -19.8208z" fill-rule="evenodd"/><path fill="#000000" fill-opacity="0.0" d="m1247.5591 141.10236l763.9055 0l0 617.3228l-763.9055 0z" fill-rule="evenodd"/><path fill="#000000" d="m1627.5352 550.68677q3.953125 0 7.15625 3.203125l18.75 20.484375q-21.703125 25.15625 -52.671875 39.21875q-30.953125 14.0625 -74.609375 14.0625q-38.234375 0 -69.3125 -13.203125q-31.078125 -13.203125 -53.03125 -37.0q-21.953125 -23.796875 -34.046875 -57.09375q-12.078125 -33.31253 -12.078125 -73.265656q0 -39.96875 12.9375 -73.265625q12.953125 -33.296875 36.390625 -57.21875q23.4375 -23.921875 56.109375 -37.125q32.6875 -13.203125 72.15625 -13.203125q38.96875 0 67.203125 12.09375q28.25 12.078125 50.203125 32.8125l-15.53125 21.953125q-1.734375 2.453125 -3.953125 4.0625q-2.21875 1.609375 -6.40625 1.609375q-3.203125 0 -6.78125 -2.34375q-3.578125 -2.34375 -8.515625 -5.796875q-4.9375 -3.453125 -11.59375 -7.40625q-6.65625 -3.953125 -15.78125 -7.40625q-9.125 -3.453125 -21.21875 -5.796875q-12.078125 -2.34375 -27.875 -2.34375q-28.359375 0 -51.921875 9.75q-23.546875 9.75 -40.578125 27.75q-17.015625 18.0 -26.515625 43.90625q-9.484375 25.90625 -9.484375 57.96875q0 33.046875 9.484375 58.953125q9.5 25.890656 25.90625 43.78128q16.40625 17.875 38.84375 27.25q22.453125 9.375 48.34375 9.375q15.796875 0 28.375 -1.84375q12.578125 -1.859375 23.296875 -5.796875q10.734375 -3.953125 19.984375 -9.984375q9.25 -6.046875 18.625 -14.4375q4.203125 -3.703125 8.140625 -3.703125zm265.41406 73.015625l-19.484375 0q-6.421875 0 -10.375 -1.96875q-3.9375 -1.984375 -5.171875 -8.390625l-4.921875 -23.1875q-9.875 8.875 -19.25 15.90625q-9.375 7.03125 -19.734375 11.84375q-10.359375 4.8125 -22.078125 7.28125q-11.703125 2.46875 -26.015625 2.46875q-14.546875 0 -27.25 -4.0625q-12.703125 -4.078125 -22.078125 -12.21875q-9.375 -8.140625 -14.9375 -20.59375q-5.546875 -12.46875 -5.546875 -29.484375q0 -14.796875 8.140625 -28.484375q8.140625 -13.6875 26.265625 -24.296906q18.140625 -10.609375 47.484375 -17.390625q29.359375 -6.78125 71.78125 -7.78125l0 -19.484375q0 -29.09375 -12.453125 -44.015625q-12.453125 -14.9375 -36.875 -14.9375q-16.03125 0 -27.015625 4.078125q-10.96875 4.0625 -18.984375 9.125q-8.015625 5.0625 -13.8125 9.140625q-5.796875 4.0625 -11.46875 4.0625q-4.4375 0 -7.78125 -2.34375q-3.328125 -2.34375 -5.296875 -5.796875l-7.890625 -14.0625q20.71875 -19.984375 44.640625 -29.84375q23.9375 -9.875 53.03125 -9.875q20.96875 0 37.25 6.90625q16.28125 6.90625 27.375 19.25q11.109375 12.328125 16.78125 29.84375q5.671875 17.5 5.671875 38.46875l0 159.84378zm-113.953125 -26.890625q11.59375 0 21.203125 -2.34375q9.625 -2.34375 18.125 -6.65625q8.515625 -4.3125 16.28125 -10.484375q7.78125 -6.171875 15.171875 -14.0625l0 -52.046906q-30.328125 1.0000305 -51.546875 4.8281555q-21.21875 3.8125 -34.546875 9.984375q-13.3125 6.15625 -19.359375 14.546875q-6.03125 8.390625 -6.03125 18.75q0 9.859375 3.203125 17.015625q3.203125 7.15625 8.625 11.71875q5.4375 4.5625 12.828125 6.65625q7.40625 2.09375 16.046875 2.09375z" fill-rule="nonzero"/><path fill="#000000" fill-opacity="0.0" d="m1258.5931 73.50394l2.1102295 743.8425" fill-rule="evenodd"/><path stroke="#000000" stroke-width="24.0" stroke-linejoin="round" stroke-linecap="butt" d="m1258.5931 73.50394l2.1102295 743.8425" fill-rule="evenodd"/><path fill="#000000" fill-opacity="0.0" d="m1247.5591 86.24147l125.543335 -0.5354309" fill-rule="evenodd"/><path stroke="#000000" stroke-width="24.0" stroke-linejoin="round" stroke-linecap="butt" d="m1247.5591 86.24147l125.543335 -0.5354309" fill-rule="evenodd"/><path fill="#000000" fill-opacity="0.0" d="m1252.811 804.62994l125.543335 -0.5354614" fill-rule="evenodd"/><path stroke="#000000" stroke-width="24.0" stroke-linejoin="round" stroke-linecap="butt" d="m1252.811 804.62994l125.543335 -0.5354614" fill-rule="evenodd"/><path fill="#000000" fill-opacity="0.0" d="m2010.5931 73.50394l2.1102295 743.8425" fill-rule="evenodd"/><path stroke="#000000" stroke-width="24.0" stroke-linejoin="round" stroke-linecap="butt" d="m2010.5931 73.50394l2.1102295 743.8425" fill-rule="evenodd"/><path fill="#000000" fill-opacity="0.0" d="m1887.5591 86.24147l125.543335 -0.5354309" fill-rule="evenodd"/><path stroke="#000000" stroke-width="24.0" stroke-linejoin="round" stroke-linecap="butt" d="m1887.5591 86.24147l125.543335 -0.5354309" fill-rule="evenodd"/><path fill="#000000" fill-opacity="0.0" d="m1892.811 804.62994l125.543335 -0.5354614" fill-rule="evenodd"/><path stroke="#000000" stroke-width="24.0" stroke-linejoin="round" stroke-linecap="butt" d="m1892.811 804.62994l125.543335 -0.5354614" fill-rule="evenodd"/><path fill="#000000" fill-opacity="0.0" d="m2061.679 -18.507797l259.65356 0l0 261.7953l-259.65356 0z" fill-rule="evenodd"/><path fill="#000000" d="m2130.882 36.289078q10.0 0 18.296875 2.953125q8.296875 2.953125 14.1875 8.359375q5.90625 5.390625 9.203125 13.0q3.3125 7.59375 3.3125 16.890625q0 8.0 -2.359375 14.796875q-2.34375 6.796875 -6.296875 13.0q-3.953125 6.203125 -9.25 12.0q-5.296875 5.796875 -11.09375 11.796875l-32.609375 33.3125q4.8125 -1.40625 9.40625 -2.15625q4.59375 -0.75 8.796875 -0.75l37.109375 0q4.0 0 6.34375 2.25q2.34375 2.25 2.34375 5.953125l0 14.796875l-99.1875 0l0 -8.203125q0 -2.5 1.046875 -5.1875q1.046875 -2.703125 3.34375 -5.015625l43.90625 -44.0q5.5 -5.59375 9.84375 -10.6875q4.359375 -5.109375 7.296875 -10.109375q2.953125 -5.0 4.5 -10.140625q1.5625 -5.15625 1.5625 -10.859375q0 -5.203125 -1.5 -9.140625q-1.5 -3.953125 -4.3125 -6.65625q-2.796875 -2.703125 -6.65625 -4.046875q-3.84375 -1.359375 -8.640625 -1.359375q-8.890625 0 -14.640625 4.5q-5.75 4.5 -8.0625 12.109375q-1.09375 3.796875 -3.296875 5.453125q-2.203125 1.640625 -5.59375 1.640625q-1.5 0 -3.296875 -0.296875l-13.0 -2.296875q1.5 -10.40625 5.796875 -18.25q4.296875 -7.859375 10.75 -13.109375q6.453125 -5.25 14.796875 -7.890625q8.34375 -2.65625 17.953125 -2.65625zm123.59375 28.90625l0 41.0l38.90625 0l0 18.296875l-38.90625 0l0 41.203125l-20.0 0l0 -41.203125l-38.703125 0l0 -18.296875l38.703125 0l0 -41.0l20.0 0z" fill-rule="nonzero"/></g></svg>