<svg version="1.1" width="300" viewBox="0.0 0.0 250.0 300.0" fill="none" stroke="none" stroke-linecap="square" stroke-miterlimit="10" xmlns:xlink="http://www.w3.org/1999/xlink" xmlns="http://www.w3.org/2000/svg"><clipPath id="p.0"><path d="m0 0l250.0 0l0 300.0l-250.0 0l0 -300.0z" clip-rule="nonzero"/></clipPath><g clip-path="url(#p.0)"><path fill="#000000" fill-opacity="0.0" d="m0 0l250.0 0l0 300.0l-250.0 0z" fill-rule="evenodd"/><path fill="#000000" fill-opacity="0.0" d="m7.93832 176.63585l0 0c0 -63.68235 51.688198 -115.30708 115.44882 -115.30708l0 0c30.618935 0 59.983788 12.148388 81.634636 33.772663c21.650864 21.624275 33.81418 50.95308 33.81418 81.534424l0 0c0 63.682343 -51.688187 115.30708 -115.448814 115.30708l0 0c-63.76062 0 -115.44882 -51.62474 -115.44882 -115.30708z" fill-rule="evenodd"/><path stroke="#b7b7b7" stroke-width="3.0" stroke-linejoin="round" stroke-linecap="butt" d="m7.93832 176.63585l0 0c0 -63.68235 51.688198 -115.30708 115.44882 -115.30708l0 0c30.618935 0 59.983788 12.148388 81.634636 33.772663c21.650864 21.624275 33.81418 50.95308 33.81418 81.534424l0 0c0 63.682343 -51.688187 115.30708 -115.448814 115.30708l0 0c-63.76062 0 -115.44882 -51.62474 -115.44882 -115.30708z" fill-rule="evenodd"/><path fill="#000000" fill-opacity="0.0" d="m78.48475 176.01465l0 0c0 -25.431198 20.101357 -46.047256 44.897636 -46.047256l0 0c11.907593 0 23.327484 4.8513947 31.747421 13.486923c8.419937 8.635544 13.150223 20.34784 13.150223 32.560333l0 0c0 25.431183 -20.101364 46.04724 -44.897644 46.04724l0 0c-24.79628 0 -44.897636 -20.616058 -44.897636 -46.04724z" fill-rule="evenodd"/><path stroke="#b7b7b7" stroke-width="3.0" stroke-linejoin="round" stroke-linecap="butt" d="m78.48475 176.01465l0 0c0 -25.431198 20.101357 -46.047256 44.897636 -46.047256l0 0c11.907593 0 23.327484 4.8513947 31.747421 13.486923c8.419937 8.635544 13.150223 20.34784 13.150223 32.560333l0 0c0 25.431183 -20.101364 46.04724 -44.897644 46.04724l0 0c-24.79628 0 -44.897636 -20.616058 -44.897636 -46.04724z" fill-rule="evenodd"/><path fill="#000000" fill-opacity="0.0" d="m42.259193 176.64175l0 0c0 -44.661133 36.099243 -80.866135 80.62992 -80.866135l0 0c21.384384 0 41.892914 8.519798 57.01396 23.685143c15.121048 15.165352 23.615967 35.73397 23.615967 57.180992l0 0c0 44.661148 -36.09926 80.86615 -80.62993 80.86615l0 0c-44.530678 0 -80.62992 -36.205 -80.62992 -80.86615z" fill-rule="evenodd"/><path stroke="#b7b7b7" stroke-width="3.0" stroke-linejoin="round" stroke-linecap="butt" d="m42.259193 176.64175l0 0c0 -44.661133 36.099243 -80.866135 80.62992 -80.866135l0 0c21.384384 0 41.892914 8.519798 57.01396 23.685143c15.121048 15.165352 23.615967 35.73397 23.615967 57.180992l0 0c0 44.661148 -36.09926 80.86615 -80.62993 80.86615l0 0c-44.530678 0 -80.62992 -36.205 -80.62992 -80.86615z" fill-rule="evenodd"/><path fill="#45818e" d="m110.06581 176.03226l0 0c0 -7.653717 5.9577866 -13.858261 13.307083 -13.858261l0 0c3.5292587 0 6.913971 1.4600525 9.409531 4.0589905c2.4955597 2.5989227 3.8975525 6.123825 3.8975525 9.799271l0 0c0 7.653717 -5.957779 13.858261 -13.307083 13.858261l0 0c-7.3492966 0 -13.307083 -6.204544 -13.307083 -13.858261z" fill-rule="evenodd"/><path fill="#000000" d="m110.06628 131.51474l0 0c0 -2.4004822 1.9389191 -4.3464584 4.3307037 -4.3464584l0 0c1.1485748 0 2.2501068 0.45793152 3.062271 1.2730484c0.81217194 0.8151245 1.2684402 1.9206543 1.2684402 3.07341l0 0c0 2.4004822 -1.9389267 4.346451 -4.3307114 4.346451l0 0c-2.3917847 0 -4.3307037 -1.9459686 -4.3307037 -4.346451z" fill-rule="evenodd"/><path stroke="#000000" stroke-width="1.0" stroke-linejoin="round" stroke-linecap="butt" d="m110.06628 131.51474l0 0c0 -2.4004822 1.9389191 -4.3464584 4.3307037 -4.3464584l0 0c1.1485748 0 2.2501068 0.45793152 3.062271 1.2730484c0.81217194 0.8151245 1.2684402 1.9206543 1.2684402 3.07341l0 0c0 2.4004822 -1.9389267 4.346451 -4.3307114 4.346451l0 0c-2.3917847 0 -4.3307037 -1.9459686 -4.3307037 -4.346451z" fill-rule="evenodd"/><path fill="#000000" d="m128.01903 131.51474l0 0c0 -2.4004822 1.9389191 -4.3464584 4.3307037 -4.3464584l0 0c1.1485748 0 2.2501068 0.45793152 3.0622864 1.2730484c0.8121643 0.8151245 1.2684326 1.9206543 1.2684326 3.07341l0 0c0 2.4004822 -1.9389343 4.346451 -4.330719 4.346451l0 0c-2.3917847 0 -4.3307037 -1.9459686 -4.3307037 -4.346451z" fill-rule="evenodd"/><path stroke="#000000" stroke-width="1.0" stroke-linejoin="round" stroke-linecap="butt" d="m128.01903 131.51474l0 0c0 -2.4004822 1.9389191 -4.3464584 4.3307037 -4.3464584l0 0c1.1485748 0 2.2501068 0.45793152 3.0622864 1.2730484c0.8121643 0.8151245 1.2684326 1.9206543 1.2684326 3.07341l0 0c0 2.4004822 -1.9389343 4.346451 -4.330719 4.346451l0 0c-2.3917847 0 -4.3307037 -1.9459686 -4.3307037 -4.346451z" fill-rule="evenodd"/><path fill="#ff0000" d="m110.06628 60.648094l0 0c0 -2.4004822 1.9389191 -4.3464546 4.3307037 -4.3464546l0 0c1.1485748 0 2.2501068 0.4579277 3.062271 1.2730484c0.81217194 0.8151169 1.2684402 1.9206543 1.2684402 3.0734062l0 0c0 2.4004822 -1.9389267 4.3464584 -4.3307114 4.3464584l0 0c-2.3917847 0 -4.3307037 -1.9459763 -4.3307037 -4.3464584z" fill-rule="evenodd"/><path stroke="#ff0000" stroke-width="1.0" stroke-linejoin="round" stroke-linecap="butt" d="m110.06628 60.648094l0 0c0 -2.4004822 1.9389191 -4.3464546 4.3307037 -4.3464546l0 0c1.1485748 0 2.2501068 0.4579277 3.062271 1.2730484c0.81217194 0.8151169 1.2684402 1.9206543 1.2684402 3.0734062l0 0c0 2.4004822 -1.9389267 4.3464584 -4.3307114 4.3464584l0 0c-2.3917847 0 -4.3307037 -1.9459763 -4.3307037 -4.3464584z" fill-rule="evenodd"/><path fill="#ff0000" d="m128.01903 60.648094l0 0c0 -2.4004822 1.9389191 -4.3464546 4.3307037 -4.3464546l0 0c1.1485748 0 2.2501068 0.4579277 3.0622864 1.2730484c0.8121643 0.8151169 1.2684326 1.9206543 1.2684326 3.0734062l0 0c0 2.4004822 -1.9389343 4.3464584 -4.330719 4.3464584l0 0c-2.3917847 0 -4.3307037 -1.9459763 -4.3307037 -4.3464584z" fill-rule="evenodd"/><path stroke="#ff0000" stroke-width="1.0" stroke-linejoin="round" stroke-linecap="butt" d="m128.01903 60.648094l0 0c0 -2.4004822 1.9389191 -4.3464546 4.3307037 -4.3464546l0 0c1.1485748 0 2.2501068 0.4579277 3.0622864 1.2730484c0.8121643 0.8151169 1.2684326 1.9206543 1.2684326 3.0734062l0 0c0 2.4004822 -1.9389343 4.3464584 -4.330719 4.3464584l0 0c-2.3917847 0 -4.3307037 -1.9459763 -4.3307037 -4.3464584z" fill-rule="evenodd"/><path fill="#000000" d="m110.068245 257.1987l0 0c0 -2.4004822 1.9389191 -4.346466 4.3307037 -4.346466l0 0c1.1485748 0 2.2501068 0.45793152 3.062271 1.273056c0.81217194 0.81510925 1.2684402 1.920639 1.2684402 3.07341l0 0c0 2.4004822 -1.9389267 4.3464355 -4.3307114 4.3464355l0 0c-2.3917847 0 -4.3307037 -1.9459534 -4.3307037 -4.3464355z" fill-rule="evenodd"/><path stroke="#000000" stroke-width="1.0" stroke-linejoin="round" stroke-linecap="butt" d="m110.068245 257.1987l0 0c0 -2.4004822 1.9389191 -4.346466 4.3307037 -4.346466l0 0c1.1485748 0 2.2501068 0.45793152 3.062271 1.273056c0.81217194 0.81510925 1.2684402 1.920639 1.2684402 3.07341l0 0c0 2.4004822 -1.9389267 4.3464355 -4.3307114 4.3464355l0 0c-2.3917847 0 -4.3307037 -1.9459534 -4.3307037 -4.3464355z" fill-rule="evenodd"/><path fill="#000000" d="m128.021 257.1987l0 0c0 -2.4004822 1.9389191 -4.346466 4.3307037 -4.346466l0 0c1.1485748 0 2.2501068 0.45793152 3.0622864 1.273056c0.8121643 0.81510925 1.2684326 1.920639 1.2684326 3.07341l0 0c0 2.4004822 -1.9389343 4.3464355 -4.330719 4.3464355l0 0c-2.3917847 0 -4.3307037 -1.9459534 -4.3307037 -4.3464355z" fill-rule="evenodd"/><path stroke="#000000" stroke-width="1.0" stroke-linejoin="round" stroke-linecap="butt" d="m128.021 257.1987l0 0c0 -2.4004822 1.9389191 -4.346466 4.3307037 -4.346466l0 0c1.1485748 0 2.2501068 0.45793152 3.0622864 1.273056c0.8121643 0.81510925 1.2684326 1.920639 1.2684326 3.07341l0 0c0 2.4004822 -1.9389343 4.3464355 -4.330719 4.3464355l0 0c-2.3917847 0 -4.3307037 -1.9459534 -4.3307037 -4.3464355z" fill-rule="evenodd"/><path fill="#000000" d="m110.06628 95.4614l0 0c0 -2.4004822 1.9389191 -4.346451 4.3307037 -4.346451l0 0c1.1485748 0 2.2501068 0.4579239 3.062271 1.2730484c0.81217194 0.8151169 1.2684402 1.9206543 1.2684402 3.0734024l0 0c0 2.4004822 -1.9389267 4.3464584 -4.3307114 4.3464584l0 0c-2.3917847 0 -4.3307037 -1.9459763 -4.3307037 -4.3464584z" fill-rule="evenodd"/><path stroke="#000000" stroke-width="1.0" stroke-linejoin="round" stroke-linecap="butt" d="m110.06628 95.4614l0 0c0 -2.4004822 1.9389191 -4.346451 4.3307037 -4.346451l0 0c1.1485748 0 2.2501068 0.4579239 3.062271 1.2730484c0.81217194 0.8151169 1.2684402 1.9206543 1.2684402 3.0734024l0 0c0 2.4004822 -1.9389267 4.3464584 -4.3307114 4.3464584l0 0c-2.3917847 0 -4.3307037 -1.9459763 -4.3307037 -4.3464584z" fill-rule="evenodd"/><path fill="#000000" d="m128.01903 95.4614l0 0c0 -2.4004822 1.9389191 -4.346451 4.3307037 -4.346451l0 0c1.1485748 0 2.2501068 0.4579239 3.0622864 1.2730484c0.8121643 0.8151169 1.2684326 1.9206543 1.2684326 3.0734024l0 0c0 2.4004822 -1.9389343 4.3464584 -4.330719 4.3464584l0 0c-2.3917847 0 -4.3307037 -1.9459763 -4.3307037 -4.3464584z" fill-rule="evenodd"/><path stroke="#000000" stroke-width="1.0" stroke-linejoin="round" stroke-linecap="butt" d="m128.01903 95.4614l0 0c0 -2.4004822 1.9389191 -4.346451 4.3307037 -4.346451l0 0c1.1485748 0 2.2501068 0.4579239 3.0622864 1.2730484c0.8121643 0.8151169 1.2684326 1.9206543 1.2684326 3.0734024l0 0c0 2.4004822 -1.9389343 4.3464584 -4.330719 4.3464584l0 0c-2.3917847 0 -4.3307037 -1.9459763 -4.3307037 -4.3464584z" fill-rule="evenodd"/><path fill="#000000" d="m42.694225 189.34688l0 0c-2.3917847 0 -4.3307076 -1.9459839 -4.3307076 -4.346451l0 0c0 -1.1527557 0.4562683 -2.2583008 1.2684326 -3.07341c0.8121681 -0.8151245 1.9137001 -1.273056 3.062275 -1.273056l0 0c2.3917847 0 4.3307076 1.9459839 4.3307076 4.346466l0 0c0 2.400467 -1.9389229 4.346451 -4.3307076 4.346451z" fill-rule="evenodd"/><path stroke="#000000" stroke-width="1.0" stroke-linejoin="round" stroke-linecap="butt" d="m42.694225 189.34688l0 0c-2.3917847 0 -4.3307076 -1.9459839 -4.3307076 -4.346451l0 0c0 -1.1527557 0.4562683 -2.2583008 1.2684326 -3.07341c0.8121681 -0.8151245 1.9137001 -1.273056 3.062275 -1.273056l0 0c2.3917847 0 4.3307076 1.9459839 4.3307076 4.346466l0 0c0 2.400467 -1.9389229 4.346451 -4.3307076 4.346451z" fill-rule="evenodd"/><path fill="#000000" d="m42.694225 171.36752l0 0c-2.3917847 0 -4.3307076 -1.9459686 -4.3307076 -4.346451l0 0c0 -1.1527557 0.4562683 -2.2583008 1.2684326 -3.07341c0.8121681 -0.8151245 1.9137001 -1.273056 3.062275 -1.273056l0 0c2.3917847 0 4.3307076 1.9459839 4.3307076 4.346466l0 0c0 2.4004822 -1.9389229 4.346451 -4.3307076 4.346451z" fill-rule="evenodd"/><path stroke="#000000" stroke-width="1.0" stroke-linejoin="round" stroke-linecap="butt" d="m42.694225 171.36752l0 0c-2.3917847 0 -4.3307076 -1.9459686 -4.3307076 -4.346451l0 0c0 -1.1527557 0.4562683 -2.2583008 1.2684326 -3.07341c0.8121681 -0.8151245 1.9137001 -1.273056 3.062275 -1.273056l0 0c2.3917847 0 4.3307076 1.9459839 4.3307076 4.346466l0 0c0 2.4004822 -1.9389229 4.346451 -4.3307076 4.346451z" fill-rule="evenodd"/><path fill="#000000" d="m203.0269 189.9659l0 0c-2.3917847 0 -4.3307037 -1.9459686 -4.3307037 -4.346451l0 0c0 -1.1527557 0.4562683 -2.2582855 1.2684326 -3.07341c0.8121643 -0.8151245 1.9136963 -1.2730408 3.062271 -1.2730408l0 0c2.3917847 0 4.3307037 1.9459686 4.3307037 4.346451l0 0c0 2.4004822 -1.9389191 4.346451 -4.3307037 4.346451z" fill-rule="evenodd"/><path stroke="#000000" stroke-width="1.0" stroke-linejoin="round" stroke-linecap="butt" d="m203.0269 189.9659l0 0c-2.3917847 0 -4.3307037 -1.9459686 -4.3307037 -4.346451l0 0c0 -1.1527557 0.4562683 -2.2582855 1.2684326 -3.07341c0.8121643 -0.8151245 1.9136963 -1.2730408 3.062271 -1.2730408l0 0c2.3917847 0 4.3307037 1.9459686 4.3307037 4.346451l0 0c0 2.4004822 -1.9389191 4.346451 -4.3307037 4.346451z" fill-rule="evenodd"/><path fill="#000000" d="m203.0269 171.98656l0 0c-2.3917847 0 -4.3307037 -1.9459839 -4.3307037 -4.346466l0 0c0 -1.1527557 0.4562683 -2.2582855 1.2684326 -3.07341c0.8121643 -0.81510925 1.9136963 -1.2730408 3.062271 -1.2730408l0 0c2.3917847 0 4.3307037 1.9459686 4.3307037 4.346451l0 0c0 2.4004822 -1.9389191 4.346466 -4.3307037 4.346466z" fill-rule="evenodd"/><path stroke="#000000" stroke-width="1.0" stroke-linejoin="round" stroke-linecap="butt" d="m203.0269 171.98656l0 0c-2.3917847 0 -4.3307037 -1.9459839 -4.3307037 -4.346466l0 0c0 -1.1527557 0.4562683 -2.2582855 1.2684326 -3.07341c0.8121643 -0.81510925 1.9136963 -1.2730408 3.062271 -1.2730408l0 0c2.3917847 0 4.3307037 1.9459686 4.3307037 4.346451l0 0c0 2.4004822 -1.9389191 4.346466 -4.3307037 4.346466z" fill-rule="evenodd"/><path fill="#ff0000" d="m8.145013 189.96638l0 0c-2.3917842 0 -4.3307085 -1.9459839 -4.3307085 -4.346466l0 0c0 -1.1527405 0.45626974 -2.2582855 1.2684355 -3.07341c0.81216526 -0.81510925 1.9136977 -1.2730408 3.062273 -1.2730408l0 0c2.3917847 0 4.3307085 1.9459686 4.3307085 4.346451l0 0c0 2.4004822 -1.9389238 4.346466 -4.3307085 4.346466z" fill-rule="evenodd"/><path stroke="#ff0000" stroke-width="1.0" stroke-linejoin="round" stroke-linecap="butt" d="m8.145013 189.96638l0 0c-2.3917842 0 -4.3307085 -1.9459839 -4.3307085 -4.346466l0 0c0 -1.1527405 0.45626974 -2.2582855 1.2684355 -3.07341c0.81216526 -0.81510925 1.9136977 -1.2730408 3.062273 -1.2730408l0 0c2.3917847 0 4.3307085 1.9459686 4.3307085 4.346451l0 0c0 2.4004822 -1.9389238 4.346466 -4.3307085 4.346466z" fill-rule="evenodd"/><path fill="#ff0000" d="m114.396324 296.98444l0 0c-2.3917847 0 -4.3307037 -1.9459839 -4.3307037 -4.346466l0 0c0 -1.1527405 0.4562683 -2.2583008 1.2684326 -3.0733948c0.8121643 -0.8151245 1.9136963 -1.2730713 3.062271 -1.2730713l0 0c2.3917847 0 4.3307114 1.9459839 4.3307114 4.346466l0 0c0 2.4004822 -1.9389267 4.346466 -4.3307114 4.346466z" fill-rule="evenodd"/><path stroke="#ff0000" stroke-width="1.0" stroke-linejoin="round" stroke-linecap="butt" d="m114.396324 296.98444l0 0c-2.3917847 0 -4.3307037 -1.9459839 -4.3307037 -4.346466l0 0c0 -1.1527405 0.4562683 -2.2583008 1.2684326 -3.0733948c0.8121643 -0.8151245 1.9136963 -1.2730713 3.062271 -1.2730713l0 0c2.3917847 0 4.3307114 1.9459839 4.3307114 4.346466l0 0c0 2.4004822 -1.9389267 4.346466 -4.3307114 4.346466z" fill-rule="evenodd"/><path fill="#000000" fill-opacity="0.0" d="m91.522964 -10.95538l62.708664 0l0 63.02362l-62.708664 0z" fill-rule="evenodd"/><path fill="#000000" d="m127.74481 28.522741q0.3125 0 0.578125 0.265625l1.515625 1.65625q-1.765625 2.046877 -4.28125 3.187502q-2.5 1.125 -6.046875 1.125q-3.09375 0 -5.625 -1.0625q-2.515625 -1.0625 -4.296875 -3.000002q-1.765625 -1.9375 -2.75 -4.625q-0.984375 -2.703125 -0.984375 -5.9375q0 -3.25 1.046875 -5.937499q1.0625 -2.703125 2.953125 -4.640625q1.90625 -1.953125 4.546875 -3.015625q2.65625 -1.078125 5.859375 -1.078125q3.15625 0 5.4375 0.984375q2.296875 0.984375 4.078125 2.65625l-1.265625 1.78125q-0.140625 0.203125 -0.328125 0.34375q-0.171875 0.125 -0.5 0.125q-0.265625 0 -0.5625 -0.1875q-0.28125 -0.203125 -0.6875 -0.484375q-0.390625 -0.28125 -0.9375 -0.59375q-0.53125 -0.328125 -1.28125 -0.59375q-0.734375 -0.28125 -1.71875 -0.46875q-0.984375 -0.203125 -2.25 -0.203125q-2.3125 0 -4.21875 0.796875q-1.90625 0.78125 -3.296875 2.25q-1.375 1.453125 -2.140625 3.5625q-0.765625 2.093749 -0.765625 4.703124q0 2.671875 0.765625 4.78125q0.765625 2.09375 2.09375 3.546875q1.328125 1.4375 3.140625 2.203125q1.828125 0.765625 3.9375 0.765625q1.28125 0 2.296875 -0.140625q1.015625 -0.15625 1.890625 -0.46875q0.875 -0.328125 1.625 -0.8125q0.75 -0.5 1.5 -1.1875q0.34375 -0.296875 0.671875 -0.296875zm10.587479 -23.53125l0 29.453125l-3.5625 0l0 -29.453125l3.5625 0z" fill-rule="nonzero"/><path fill="#ff0000" d="m238.46654 180.98935l0 0c-2.3917847 0 -4.3307037 -1.9459686 -4.3307037 -4.346451l0 0c0 -1.1527557 0.4562683 -2.2583008 1.2684326 -3.07341c0.8121643 -0.8151245 1.9136963 -1.273056 3.062271 -1.273056l0 0c2.3917847 0 4.3307037 1.9459839 4.3307037 4.346466l0 0c0 2.4004822 -1.9389191 4.346451 -4.3307037 4.346451z" fill-rule="evenodd"/><path stroke="#ff0000" stroke-width="1.0" stroke-linejoin="round" stroke-linecap="butt" d="m238.46654 180.98935l0 0c-2.3917847 0 -4.3307037 -1.9459686 -4.3307037 -4.346451l0 0c0 -1.1527557 0.4562683 -2.2583008 1.2684326 -3.07341c0.8121643 -0.8151245 1.9136963 -1.273056 3.062271 -1.273056l0 0c2.3917847 0 4.3307037 1.9459839 4.3307037 4.346466l0 0c0 2.4004822 -1.9389191 4.346451 -4.3307037 4.346451z" fill-rule="evenodd"/><path fill="#ff0000" d="m8.143701 171.36731l0 0c-2.3917842 0 -4.3307085 -1.9459839 -4.3307085 -4.346466l0 0c0 -1.1527557 0.45626974 -2.2582855 1.268435 -3.07341c0.81216574 -0.81510925 1.9136982 -1.2730408 3.0622735 -1.2730408l0 0c2.3917847 0 4.3307085 1.9459686 4.3307085 4.346451l0 0c0 2.4004822 -1.9389238 4.346466 -4.3307085 4.346466z" fill-rule="evenodd"/><path stroke="#ff0000" stroke-width="1.0" stroke-linejoin="round" stroke-linecap="butt" d="m8.143701 171.36731l0 0c-2.3917842 0 -4.3307085 -1.9459839 -4.3307085 -4.346466l0 0c0 -1.1527557 0.45626974 -2.2582855 1.268435 -3.07341c0.81216574 -0.81510925 1.9136982 -1.2730408 3.0622735 -1.2730408l0 0c2.3917847 0 4.3307085 1.9459686 4.3307085 4.346451l0 0c0 2.4004822 -1.9389238 4.346466 -4.3307085 4.346466z" fill-rule="evenodd"/><path fill="#ff0000" d="m132.35104 296.9841l0 0c-2.3917847 0 -4.3307037 -1.9459839 -4.3307037 -4.346466l0 0c0 -1.1527405 0.4562683 -2.2582703 1.2684326 -3.0733948c0.8121643 -0.8151245 1.9136963 -1.2730408 3.062271 -1.2730408l0 0c2.3917847 0 4.330719 1.9459534 4.330719 4.3464355l0 0c0 2.4004822 -1.9389343 4.346466 -4.330719 4.346466z" fill-rule="evenodd"/><path stroke="#ff0000" stroke-width="1.0" stroke-linejoin="round" stroke-linecap="butt" d="m132.35104 296.9841l0 0c-2.3917847 0 -4.3307037 -1.9459839 -4.3307037 -4.346466l0 0c0 -1.1527405 0.4562683 -2.2582703 1.2684326 -3.0733948c0.8121643 -0.8151245 1.9136963 -1.2730408 3.062271 -1.2730408l0 0c2.3917847 0 4.330719 1.9459534 4.330719 4.3464355l0 0c0 2.4004822 -1.9389343 4.346466 -4.330719 4.346466z" fill-rule="evenodd"/></g></svg>