<svg version="1.1" width="150" viewBox="0.0 0.0 400.0 400.0" fill="none" stroke="none" stroke-linecap="square" stroke-miterlimit="10" xmlns:xlink="http://www.w3.org/1999/xlink" xmlns="http://www.w3.org/2000/svg"><clipPath id="p.0"><path d="m0 0l400.0 0l0 400.0l-400.0 0l0 -400.0z" clip-rule="nonzero"/></clipPath><g clip-path="url(#p.0)"><path fill="#000000" fill-opacity="0.0" d="m0 0l400.0 0l0 400.0l-400.0 0z" fill-rule="evenodd"/><path fill="#000000" fill-opacity="0.0" d="m7.8766394 205.6663l0 0c0 -103.00327 86.01773 -186.50394 192.12599 -186.50394l0 0c50.95497 0 99.82297 19.649467 135.85358 54.625736c36.03061 34.976273 56.2724 82.41428 56.2724 131.8782l0 0c0 103.00328 -86.01773 186.50395 -192.12598 186.50395l0 0c-106.10825 0 -192.12599 -83.50067 -192.12599 -186.50395z" fill-rule="evenodd"/><path stroke="#b7b7b7" stroke-width="8.0" stroke-linejoin="round" stroke-linecap="butt" d="m7.8766394 205.6663l0 0c0 -103.00327 86.01773 -186.50394 192.12599 -186.50394l0 0c50.95497 0 99.82297 19.649467 135.85358 54.625736c36.03061 34.976273 56.2724 82.41428 56.2724 131.8782l0 0c0 103.00328 -86.01773 186.50395 -192.12598 186.50395l0 0c-106.10825 0 -192.12599 -83.50067 -192.12599 -186.50395z" fill-rule="evenodd"/><path fill="#45818e" d="m143.03468 205.63826l0 0c0 -30.971436 25.488052 -56.078735 56.92914 -56.078735l0 0c15.098541 0 29.57869 5.9082794 40.254974 16.42508c10.676285 10.5168 16.674149 24.780655 16.674149 39.653656l0 0c0 30.971436 -25.488022 56.07875 -56.929123 56.07875l0 0c-31.441086 0 -56.92914 -25.107315 -56.92914 -56.07875z" fill-rule="evenodd"/><path fill="#000000" d="m143.03667 25.372704l0 0c0 -9.688901 8.277451 -17.543308 18.48819 -17.543308l0 0c4.903366 0 9.605911 1.8483076 13.07312 5.138316c3.4672089 3.2900085 5.4150696 7.7522163 5.4150696 12.404991l0 0c0 9.6889 -8.277451 17.543308 -18.48819 17.543308l0 0c-10.210739 0 -18.48819 -7.8544083 -18.48819 -17.543308z" fill-rule="evenodd"/><path stroke="#000000" stroke-width="1.0" stroke-linejoin="round" stroke-linecap="butt" d="m143.03667 25.372704l0 0c0 -9.688901 8.277451 -17.543308 18.48819 -17.543308l0 0c4.903366 0 9.605911 1.8483076 13.07312 5.138316c3.4672089 3.2900085 5.4150696 7.7522163 5.4150696 12.404991l0 0c0 9.6889 -8.277451 17.543308 -18.48819 17.543308l0 0c-10.210739 0 -18.48819 -7.8544083 -18.48819 -17.543308z" fill-rule="evenodd"/><path fill="#000000" d="m219.8694 25.372704l0 0c0 -9.688901 8.277435 -17.543308 18.48819 -17.543308l0 0c4.903366 0 9.605911 1.8483076 13.07312 5.138316c3.4672089 3.2900085 5.4150543 7.7522163 5.4150543 12.404991l0 0c0 9.6889 -8.277435 17.543308 -18.488174 17.543308l0 0c-10.210754 0 -18.48819 -7.8544083 -18.48819 -17.543308z" fill-rule="evenodd"/><path stroke="#000000" stroke-width="1.0" stroke-linejoin="round" stroke-linecap="butt" d="m219.8694 25.372704l0 0c0 -9.688901 8.277435 -17.543308 18.48819 -17.543308l0 0c4.903366 0 9.605911 1.8483076 13.07312 5.138316c3.4672089 3.2900085 5.4150543 7.7522163 5.4150543 12.404991l0 0c0 9.6889 -8.277435 17.543308 -18.488174 17.543308l0 0c-10.210754 0 -18.48819 -7.8544083 -18.48819 -17.543308z" fill-rule="evenodd"/></g></svg>