<svg version="1.1" viewBox="0.0 0.0 1042.1863517060367 778.1259842519685" fill="none" stroke="none" stroke-linecap="square" stroke-miterlimit="10" xmlns:xlink="http://www.w3.org/1999/xlink" xmlns="http://www.w3.org/2000/svg"><clipPath id="p.0"><path d="m0 0l1042.1864 0l0 778.126l-1042.1864 0l0 -778.126z" clip-rule="nonzero"/></clipPath><g clip-path="url(#p.0)"><path fill="#000000" fill-opacity="0.0" d="m0 0l1042.1864 0l0 778.126l-1042.1864 0z" fill-rule="evenodd"/><path fill="#000000" fill-opacity="0.0" d="m929.11285 388.7244l0 0c0 -22.082672 18.141296 -39.984253 40.519714 -39.984253l0 0c10.74646 0 21.052795 4.212616 28.651733 11.711121c7.598877 7.4985046 11.86792 17.66867 11.86792 28.273132l0 0c0 22.082703 -18.141296 39.984253 -40.519653 39.984253l0 0c-22.378418 0 -40.519714 -17.90155 -40.519714 -39.984253z" fill-rule="evenodd"/><path fill="#000000" fill-opacity="0.0" d="m73.43307 100.7874l624.15753 0l0 552.6614l-624.15753 0z" fill-rule="evenodd"/><path fill="#000000" d="m541.04553 374.67178q0 35.421875 -11.21875 65.015625q-11.21875 29.578125 -31.6875 50.921875q-20.453125 21.34375 -49.171875 33.109344q-28.703125 11.765625 -63.453125 11.765625q-34.765625 0 -63.375 -11.765625q-28.59375 -11.7655945 -49.046875 -33.109344q-20.453125 -21.34375 -31.6875 -50.921875q-11.21875 -29.59375 -11.21875 -65.015625q0 -35.421875 11.21875 -65.015625q11.234375 -29.59375 31.6875 -51.03125q20.453125 -21.45314 49.046875 -33.32814q28.609375 -11.890625 63.375 -11.890625q34.75 0 63.453125 11.890625q28.71875 11.875 49.171875 33.32814q20.46875 21.4375 31.6875 51.03125q11.21875 29.59375 11.21875 65.015625zm-43.78125 0q0 -29.046875 -7.921875 -52.140625q-7.90625 -23.109375 -22.4375 -39.046875q-14.515625 -15.953125 -35.203125 -24.53125q-20.671875 -8.57814 -46.1875 -8.57814q-25.296875 0 -45.984375 8.57814q-20.671875 8.578125 -35.3125 24.53125q-14.625 15.9375 -22.546875 39.046875q-7.921875 23.09375 -7.921875 52.140625q0 29.03125 7.921875 52.03125q7.921875 22.984375 22.546875 38.9375q14.640625 15.953125 35.3125 24.421875q20.6875 8.46875 45.984375 8.46875q25.515625 0 46.1875 -8.46875q20.6875 -8.46875 35.203125 -24.421875q14.53125 -15.953125 22.4375 -38.9375q7.921875 -23.0 7.921875 -52.03125z" fill-rule="nonzero"/><path fill="#000000" d="m309.06036 125.561676l0 0c0 -14.924728 12.423218 -27.02362 27.748047 -27.02362l0 0c7.3592224 0 14.417053 2.8471222 19.62082 7.915039c5.203766 5.0679092 8.127197 11.941475 8.127197 19.108582l0 0c0 14.924744 -12.423218 27.02362 -27.748016 27.02362l0 0c-15.324829 0 -27.748047 -12.098877 -27.748047 -27.02362z" fill-rule="evenodd"/><path stroke="#000000" stroke-width="1.0" stroke-linejoin="round" stroke-linecap="butt" d="m309.06036 125.561676l0 0c0 -14.924728 12.423218 -27.02362 27.748047 -27.02362l0 0c7.3592224 0 14.417053 2.8471222 19.62082 7.915039c5.203766 5.0679092 8.127197 11.941475 8.127197 19.108582l0 0c0 14.924744 -12.423218 27.02362 -27.748016 27.02362l0 0c-15.324829 0 -27.748047 -12.098877 -27.748047 -27.02362z" fill-rule="evenodd"/><path fill="#000000" fill-opacity="0.0" d="m16.811024 13.6587925l2.1102352 743.8425" fill-rule="evenodd"/><path stroke="#000000" stroke-width="24.0" stroke-linejoin="round" stroke-linecap="butt" d="m16.811024 13.6587925l2.1102352 743.8425" fill-rule="evenodd"/><path fill="#000000" fill-opacity="0.0" d="m5.7769027 24.833826l125.543304 -0.5354328" fill-rule="evenodd"/><path stroke="#000000" stroke-width="24.0" stroke-linejoin="round" stroke-linecap="butt" d="m5.7769027 24.833826l125.543304 -0.5354328" fill-rule="evenodd"/><path fill="#000000" fill-opacity="0.0" d="m11.028872 746.3473l125.543304 -0.5354614" fill-rule="evenodd"/><path stroke="#000000" stroke-width="24.0" stroke-linejoin="round" stroke-linecap="butt" d="m11.028872 746.3473l125.543304 -0.5354614" fill-rule="evenodd"/><path fill="#000000" fill-opacity="0.0" d="m768.81104 13.6587925l2.1102295 743.8425" fill-rule="evenodd"/><path stroke="#000000" stroke-width="24.0" stroke-linejoin="round" stroke-linecap="butt" d="m768.81104 13.6587925l2.1102295 743.8425" fill-rule="evenodd"/><path fill="#000000" fill-opacity="0.0" d="m645.7769 25.914906l125.543274 -0.5354328" fill-rule="evenodd"/><path stroke="#000000" stroke-width="24.0" stroke-linejoin="round" stroke-linecap="butt" d="m645.7769 25.914906l125.543274 -0.5354328" fill-rule="evenodd"/><path fill="#000000" fill-opacity="0.0" d="m651.0289 746.3473l125.543335 -0.5354614" fill-rule="evenodd"/><path stroke="#000000" stroke-width="24.0" stroke-linejoin="round" stroke-linecap="butt" d="m651.0289 746.3473l125.543335 -0.5354614" fill-rule="evenodd"/><path fill="#000000" fill-opacity="0.0" d="m802.91077 -46.947506l307.71655 0l0 261.79526l-307.71655 0z" fill-rule="evenodd"/><path fill="#000000" d="m872.1139 7.8493686q10.0 0 18.296875 2.9531245q8.296875 2.953125 14.1875 8.359376q5.90625 5.390625 9.203125 13.0q3.3125 7.59375 3.3125 16.890625q0 8.0 -2.359375 14.796875q-2.34375 6.796871 -6.296875 12.999996q-3.953125 6.203125 -9.25 12.0q-5.296875 5.796875 -11.09375 11.796875l-32.609375 33.3125q4.8125 -1.40625 9.40625 -2.15625q4.59375 -0.75 8.796875 -0.75l37.109375 0q4.0 0 6.34375 2.25q2.34375 2.25 2.34375 5.953125l0 14.796875l-99.1875 0l0 -8.203125q0 -2.5 1.046875 -5.1875q1.046875 -2.703125 3.34375 -5.015625l43.90625 -44.0q5.5 -5.59375 9.84375 -10.6875q4.359375 -5.109375 7.296875 -10.109375q2.953125 -5.0 4.5 -10.140621q1.5625 -5.15625 1.5625 -10.859375q0 -5.203125 -1.5 -9.140625q-1.5 -3.953125 -4.3125 -6.65625q-2.796875 -2.703125 -6.65625 -4.046875q-3.84375 -1.359375 -8.640625 -1.359375q-8.890625 0 -14.640625 4.5q-5.75 4.5 -8.0625 12.109375q-1.09375 3.796875 -3.296875 5.453125q-2.203125 1.640625 -5.59375 1.640625q-1.5 0 -3.296875 -0.296875l-13.0 -2.296875q1.5 -10.40625 5.796875 -18.25q4.296875 -7.859375 10.75 -13.109375q6.453125 -5.250001 14.796875 -7.890626q8.34375 -2.6562495 17.953125 -2.6562495zm72.09363 77.5l81.109375 0l0 17.5l-81.109375 0l0 -17.5z" fill-rule="nonzero"/><path fill="#000000" d="m416.46194 125.561676l0 0c0 -14.924728 12.423218 -27.02362 27.748016 -27.02362l0 0c7.359253 0 14.417084 2.8471222 19.62082 7.915039c5.203766 5.0679092 8.127228 11.941475 8.127228 19.108582l0 0c0 14.924744 -12.423218 27.02362 -27.748047 27.02362l0 0c-15.324799 0 -27.748016 -12.098877 -27.748016 -27.02362z" fill-rule="evenodd"/><path stroke="#000000" stroke-width="1.0" stroke-linejoin="round" stroke-linecap="butt" d="m416.46194 125.561676l0 0c0 -14.924728 12.423218 -27.02362 27.748016 -27.02362l0 0c7.359253 0 14.417084 2.8471222 19.62082 7.915039c5.203766 5.0679092 8.127228 11.941475 8.127228 19.108582l0 0c0 14.924744 -12.423218 27.02362 -27.748047 27.02362l0 0c-15.324799 0 -27.748016 -12.098877 -27.748016 -27.02362z" fill-rule="evenodd"/><path fill="#000000" d="m616.07874 309.07086l0 0c0 -14.924744 12.423218 -27.02362 27.748047 -27.02362l0 0c7.359253 0 14.417053 2.8471375 19.620789 7.915039c5.2037964 5.0679016 8.127258 11.941467 8.127258 19.108582l0 0c0 14.924744 -12.423218 27.02362 -27.748047 27.02362l0 0c-15.324829 0 -27.748047 -12.098877 -27.748047 -27.02362z" fill-rule="evenodd"/><path stroke="#000000" stroke-width="1.0" stroke-linejoin="round" stroke-linecap="butt" d="m616.07874 309.07086l0 0c0 -14.924744 12.423218 -27.02362 27.748047 -27.02362l0 0c7.359253 0 14.417053 2.8471375 19.620789 7.915039c5.2037964 5.0679016 8.127258 11.941467 8.127258 19.108582l0 0c0 14.924744 -12.423218 27.02362 -27.748047 27.02362l0 0c-15.324829 0 -27.748047 -12.098877 -27.748047 -27.02362z" fill-rule="evenodd"/><path fill="#000000" d="m616.07874 416.33072l0 0c0 -14.924744 12.423218 -27.02362 27.748047 -27.02362l0 0c7.359253 0 14.417053 2.847107 19.620789 7.915039c5.2037964 5.0679016 8.127258 11.941467 8.127258 19.108582l0 0c0 14.924713 -12.423218 27.02362 -27.748047 27.02362l0 0c-15.324829 0 -27.748047 -12.098907 -27.748047 -27.02362z" fill-rule="evenodd"/><path stroke="#000000" stroke-width="1.0" stroke-linejoin="round" stroke-linecap="butt" d="m616.07874 416.33072l0 0c0 -14.924744 12.423218 -27.02362 27.748047 -27.02362l0 0c7.359253 0 14.417053 2.847107 19.620789 7.915039c5.2037964 5.0679016 8.127258 11.941467 8.127258 19.108582l0 0c0 14.924713 -12.423218 27.02362 -27.748047 27.02362l0 0c-15.324829 0 -27.748047 -12.098907 -27.748047 -27.02362z" fill-rule="evenodd"/><path fill="#000000" d="m96.07874 309.07086l0 0c0 -14.924744 12.423218 -27.02362 27.748032 -27.02362l0 0c7.35923 0 14.417046 2.8471375 19.620811 7.915039c5.203766 5.0679016 8.127213 11.941467 8.127213 19.108582l0 0c0 14.924744 -12.423218 27.02362 -27.748024 27.02362l0 0c-15.324814 0 -27.748032 -12.098877 -27.748032 -27.02362z" fill-rule="evenodd"/><path stroke="#000000" stroke-width="1.0" stroke-linejoin="round" stroke-linecap="butt" d="m96.07874 309.07086l0 0c0 -14.924744 12.423218 -27.02362 27.748032 -27.02362l0 0c7.35923 0 14.417046 2.8471375 19.620811 7.915039c5.203766 5.0679016 8.127213 11.941467 8.127213 19.108582l0 0c0 14.924744 -12.423218 27.02362 -27.748024 27.02362l0 0c-15.324814 0 -27.748032 -12.098877 -27.748032 -27.02362z" fill-rule="evenodd"/><path fill="#000000" d="m96.07874 416.33072l0 0c0 -14.924744 12.423218 -27.02362 27.748032 -27.02362l0 0c7.35923 0 14.417046 2.847107 19.620811 7.915039c5.203766 5.0679016 8.127213 11.941467 8.127213 19.108582l0 0c0 14.924713 -12.423218 27.02362 -27.748024 27.02362l0 0c-15.324814 0 -27.748032 -12.098907 -27.748032 -27.02362z" fill-rule="evenodd"/><path stroke="#000000" stroke-width="1.0" stroke-linejoin="round" stroke-linecap="butt" d="m96.07874 416.33072l0 0c0 -14.924744 12.423218 -27.02362 27.748032 -27.02362l0 0c7.35923 0 14.417046 2.847107 19.620811 7.915039c5.203766 5.0679016 8.127213 11.941467 8.127213 19.108582l0 0c0 14.924713 -12.423218 27.02362 -27.748024 27.02362l0 0c-15.324814 0 -27.748032 -12.098907 -27.748032 -27.02362z" fill-rule="evenodd"/><path fill="#000000" d="m309.06036 629.5617l0 0c0 -14.924744 12.423218 -27.02362 27.748047 -27.02362l0 0c7.3592224 0 14.417053 2.847107 19.62082 7.914978c5.203766 5.067932 8.127197 11.941528 8.127197 19.108643l0 0c0 14.924683 -12.423218 27.02362 -27.748016 27.02362l0 0c-15.324829 0 -27.748047 -12.098938 -27.748047 -27.02362z" fill-rule="evenodd"/><path stroke="#000000" stroke-width="1.0" stroke-linejoin="round" stroke-linecap="butt" d="m309.06036 629.5617l0 0c0 -14.924744 12.423218 -27.02362 27.748047 -27.02362l0 0c7.3592224 0 14.417053 2.847107 19.62082 7.914978c5.203766 5.067932 8.127197 11.941528 8.127197 19.108643l0 0c0 14.924683 -12.423218 27.02362 -27.748016 27.02362l0 0c-15.324829 0 -27.748047 -12.098938 -27.748047 -27.02362z" fill-rule="evenodd"/><path fill="#000000" d="m416.46194 629.5617l0 0c0 -14.924744 12.423218 -27.02362 27.748016 -27.02362l0 0c7.359253 0 14.417084 2.847107 19.62082 7.914978c5.203766 5.067932 8.127228 11.941528 8.127228 19.108643l0 0c0 14.924683 -12.423218 27.02362 -27.748047 27.02362l0 0c-15.324799 0 -27.748016 -12.098938 -27.748016 -27.02362z" fill-rule="evenodd"/><path stroke="#000000" stroke-width="1.0" stroke-linejoin="round" stroke-linecap="butt" d="m416.46194 629.5617l0 0c0 -14.924744 12.423218 -27.02362 27.748016 -27.02362l0 0c7.359253 0 14.417084 2.847107 19.62082 7.914978c5.203766 5.067932 8.127228 11.941528 8.127228 19.108643l0 0c0 14.924683 -12.423218 27.02362 -27.748047 27.02362l0 0c-15.324799 0 -27.748016 -12.098938 -27.748016 -27.02362z" fill-rule="evenodd"/></g></svg>